{
	"patcher" : 	{
		"fileversion" : 1,
		"appversion" : 		{
			"major" : 7,
			"minor" : 3,
			"revision" : 3,
			"architecture" : "x64",
			"modernui" : 1
		}
,
		"rect" : [ 66.0, 85.0, 537.0, 561.0 ],
		"bglocked" : 0,
		"openinpresentation" : 0,
		"default_fontsize" : 12.0,
		"default_fontface" : 0,
		"default_fontname" : "Arial",
		"gridonopen" : 1,
		"gridsize" : [ 15.0, 15.0 ],
		"gridsnaponopen" : 1,
		"objectsnaponopen" : 1,
		"statusbarvisible" : 2,
		"toolbarvisible" : 1,
		"lefttoolbarpinned" : 0,
		"toptoolbarpinned" : 0,
		"righttoolbarpinned" : 0,
		"bottomtoolbarpinned" : 0,
		"toolbars_unpinned_last_save" : 0,
		"tallnewobj" : 0,
		"boxanimatetime" : 200,
		"enablehscroll" : 1,
		"enablevscroll" : 1,
		"devicewidth" : 0.0,
		"description" : "",
		"digest" : "",
		"tags" : "",
		"style" : "",
		"subpatcher_template" : "",
		"boxes" : [ 			{
				"box" : 				{
					"id" : "obj-13",
					"maxclass" : "newobj",
					"numinlets" : 2,
					"numoutlets" : 1,
					"outlettype" : [ "int" ],
					"patching_rect" : [ 177.0, 446.0, 41.0, 22.0 ],
					"style" : "",
					"text" : "+ 513"
				}

			}
, 			{
				"box" : 				{
					"id" : "obj-12",
					"maxclass" : "newobj",
					"numinlets" : 1,
					"numoutlets" : 3,
					"outlettype" : [ "", "int", "int" ],
					"patching_rect" : [ 125.5, 410.0, 60.0, 22.0 ],
					"style" : "",
					"text" : "change 0"
				}

			}
, 			{
				"box" : 				{
					"id" : "obj-11",
					"int" : 1,
					"maxclass" : "gswitch",
					"numinlets" : 3,
					"numoutlets" : 1,
					"outlettype" : [ "" ],
					"parameter_enable" : 0,
					"patching_rect" : [ 146.0, 474.0, 50.0, 22.0 ],
					"style" : ""
				}

			}
, 			{
				"box" : 				{
					"id" : "obj-5",
					"maxclass" : "newobj",
					"numinlets" : 2,
					"numoutlets" : 1,
					"outlettype" : [ "int" ],
					"patching_rect" : [ 125.5, 386.0, 48.0, 22.0 ],
					"style" : "",
					"text" : "== 513"
				}

			}
, 			{
				"box" : 				{
					"id" : "obj-9",
					"maxclass" : "newobj",
					"numinlets" : 1,
					"numoutlets" : 2,
					"outlettype" : [ "bang", "bang" ],
					"patching_rect" : [ 36.5, 560.0, 34.0, 22.0 ],
					"style" : "",
					"text" : "t b b"
				}

			}
, 			{
				"box" : 				{
					"id" : "obj-8",
					"maxclass" : "newobj",
					"numinlets" : 1,
					"numoutlets" : 3,
					"outlettype" : [ "", "int", "int" ],
					"patching_rect" : [ 135.0, 119.0, 60.0, 22.0 ],
					"style" : "",
					"text" : "change 0"
				}

			}
, 			{
				"box" : 				{
					"id" : "obj-7",
					"maxclass" : "newobj",
					"numinlets" : 2,
					"numoutlets" : 1,
					"outlettype" : [ "int" ],
					"patching_rect" : [ 135.0, 95.0, 48.0, 22.0 ],
					"style" : "",
					"text" : "== 513"
				}

			}
, 			{
				"box" : 				{
					"id" : "obj-6",
					"maxclass" : "newobj",
					"numinlets" : 0,
					"numoutlets" : 1,
					"outlettype" : [ "" ],
					"patching_rect" : [ 135.0, 71.0, 41.0, 22.0 ],
					"style" : "",
					"text" : "r num"
				}

			}
, 			{
				"box" : 				{
					"id" : "obj-2",
					"maxclass" : "newobj",
					"numinlets" : 1,
					"numoutlets" : 2,
					"outlettype" : [ "int", "int" ],
					"patching_rect" : [ 146.0, 510.0, 29.5, 22.0 ],
					"style" : "",
					"text" : "t i i"
				}

			}
, 			{
				"box" : 				{
					"id" : "obj-17",
					"maxclass" : "newobj",
					"numinlets" : 3,
					"numoutlets" : 1,
					"outlettype" : [ "float" ],
					"patching_rect" : [ 155.5, 178.0, 221.0, 22.0 ],
					"style" : "",
					"text" : "peek~ Table"
				}

			}
, 			{
				"box" : 				{
					"color" : [ 0.945098, 0.913725, 0.407843, 1.0 ],
					"id" : "obj-3",
					"maxclass" : "newobj",
					"numinlets" : 1,
					"numoutlets" : 2,
					"outlettype" : [ "int", "float" ],
					"patcher" : 					{
						"fileversion" : 1,
						"appversion" : 						{
							"major" : 7,
							"minor" : 3,
							"revision" : 3,
							"architecture" : "x64",
							"modernui" : 1
						}
,
						"rect" : [ 548.0, 88.0, 776.0, 601.0 ],
						"bglocked" : 0,
						"openinpresentation" : 0,
						"default_fontsize" : 12.0,
						"default_fontface" : 0,
						"default_fontname" : "Arial",
						"gridonopen" : 1,
						"gridsize" : [ 15.0, 15.0 ],
						"gridsnaponopen" : 1,
						"objectsnaponopen" : 1,
						"statusbarvisible" : 2,
						"toolbarvisible" : 1,
						"lefttoolbarpinned" : 0,
						"toptoolbarpinned" : 0,
						"righttoolbarpinned" : 0,
						"bottomtoolbarpinned" : 0,
						"toolbars_unpinned_last_save" : 0,
						"tallnewobj" : 0,
						"boxanimatetime" : 200,
						"enablehscroll" : 1,
						"enablevscroll" : 1,
						"devicewidth" : 0.0,
						"description" : "",
						"digest" : "",
						"tags" : "",
						"style" : "",
						"subpatcher_template" : "",
						"visible" : 1,
						"boxes" : [ 							{
								"box" : 								{
									"id" : "obj-55",
									"maxclass" : "newobj",
									"numinlets" : 1,
									"numoutlets" : 1,
									"outlettype" : [ "" ],
									"patching_rect" : [ 293.75, 192.0, 128.0, 22.0 ],
									"style" : "",
									"text" : "if $i1 > 1 then 0 else 1"
								}

							}
, 							{
								"box" : 								{
									"id" : "obj-53",
									"maxclass" : "newobj",
									"numinlets" : 2,
									"numoutlets" : 1,
									"outlettype" : [ "" ],
									"patching_rect" : [ 293.75, 224.0, 34.0, 22.0 ],
									"style" : "",
									"text" : "gate"
								}

							}
, 							{
								"box" : 								{
									"id" : "obj-51",
									"maxclass" : "newobj",
									"numinlets" : 2,
									"numoutlets" : 1,
									"outlettype" : [ "int" ],
									"patching_rect" : [ 293.75, 165.0, 29.5, 22.0 ],
									"style" : "",
									"text" : "+ 1"
								}

							}
, 							{
								"box" : 								{
									"id" : "obj-48",
									"maxclass" : "newobj",
									"numinlets" : 5,
									"numoutlets" : 4,
									"outlettype" : [ "int", "", "", "int" ],
									"patching_rect" : [ 293.75, 138.0, 61.0, 22.0 ],
									"style" : "",
									"text" : "counter"
								}

							}
, 							{
								"box" : 								{
									"id" : "obj-13",
									"maxclass" : "newobj",
									"numinlets" : 0,
									"numoutlets" : 1,
									"outlettype" : [ "" ],
									"patching_rect" : [ 33.0, 301.0, 58.0, 22.0 ],
									"style" : "",
									"text" : "r triggers"
								}

							}
, 							{
								"box" : 								{
									"id" : "obj-12",
									"maxclass" : "newobj",
									"numinlets" : 1,
									"numoutlets" : 0,
									"patching_rect" : [ 293.75, 314.5, 60.0, 22.0 ],
									"style" : "",
									"text" : "s triggers"
								}

							}
, 							{
								"box" : 								{
									"id" : "obj-46",
									"maxclass" : "number",
									"numinlets" : 1,
									"numoutlets" : 2,
									"outlettype" : [ "", "bang" ],
									"parameter_enable" : 0,
									"patching_rect" : [ 505.375, 360.0, 50.0, 22.0 ],
									"style" : ""
								}

							}
, 							{
								"box" : 								{
									"id" : "obj-42",
									"maxclass" : "newobj",
									"numinlets" : 2,
									"numoutlets" : 1,
									"outlettype" : [ "int" ],
									"patching_rect" : [ 456.375, 360.0, 41.0, 22.0 ],
									"style" : "",
									"text" : "+ 152"
								}

							}
, 							{
								"box" : 								{
									"color" : [ 0.835941, 0.83802, 0.894216, 1.0 ],
									"id" : "obj-34",
									"maxclass" : "newobj",
									"numinlets" : 0,
									"numoutlets" : 1,
									"outlettype" : [ "" ],
									"patching_rect" : [ 455.5, 336.0, 91.0, 22.0 ],
									"style" : "",
									"text" : "r changed num"
								}

							}
, 							{
								"box" : 								{
									"color" : [ 0.835941, 0.83802, 0.894216, 1.0 ],
									"id" : "obj-19",
									"maxclass" : "newobj",
									"numinlets" : 1,
									"numoutlets" : 0,
									"patching_rect" : [ 616.0, 443.0, 91.0, 22.0 ],
									"style" : "",
									"text" : "s changed num"
								}

							}
, 							{
								"box" : 								{
									"color" : [ 0.835941, 0.83802, 0.894216, 1.0 ],
									"id" : "obj-16",
									"maxclass" : "newobj",
									"numinlets" : 0,
									"numoutlets" : 1,
									"outlettype" : [ "" ],
									"patching_rect" : [ 408.375, 364.0, 35.0, 22.0 ],
									"style" : "",
									"text" : "r tog"
								}

							}
, 							{
								"box" : 								{
									"color" : [ 0.835941, 0.83802, 0.894216, 1.0 ],
									"id" : "obj-10",
									"maxclass" : "newobj",
									"numinlets" : 1,
									"numoutlets" : 0,
									"patching_rect" : [ 567.0, 443.0, 37.0, 22.0 ],
									"style" : "",
									"text" : "s tog",
									"textcolor" : [ 0.921569, 0.917647, 0.933333, 1.0 ]
								}

							}
, 							{
								"box" : 								{
									"id" : "obj-1",
									"maxclass" : "toggle",
									"numinlets" : 1,
									"numoutlets" : 1,
									"outlettype" : [ "int" ],
									"parameter_enable" : 0,
									"patching_rect" : [ 567.0, 423.0, 22.0, 22.0 ],
									"style" : ""
								}

							}
, 							{
								"box" : 								{
									"id" : "obj-64",
									"maxclass" : "message",
									"numinlets" : 2,
									"numoutlets" : 1,
									"outlettype" : [ "" ],
									"patching_rect" : [ 567.0, 310.0, 29.5, 22.0 ],
									"style" : "",
									"text" : "1"
								}

							}
, 							{
								"box" : 								{
									"id" : "obj-49",
									"maxclass" : "button",
									"numinlets" : 1,
									"numoutlets" : 1,
									"outlettype" : [ "bang" ],
									"patching_rect" : [ 567.0, 286.0, 22.0, 22.0 ],
									"style" : ""
								}

							}
, 							{
								"box" : 								{
									"id" : "obj-47",
									"maxclass" : "newobj",
									"numinlets" : 1,
									"numoutlets" : 3,
									"outlettype" : [ "", "int", "int" ],
									"patching_rect" : [ 545.0, 259.0, 60.0, 22.0 ],
									"style" : "",
									"text" : "change 0"
								}

							}
, 							{
								"box" : 								{
									"id" : "obj-43",
									"maxclass" : "toggle",
									"numinlets" : 1,
									"numoutlets" : 1,
									"outlettype" : [ "int" ],
									"parameter_enable" : 0,
									"patching_rect" : [ 522.125, 259.0, 22.0, 22.0 ],
									"style" : ""
								}

							}
, 							{
								"box" : 								{
									"id" : "obj-40",
									"maxclass" : "newobj",
									"numinlets" : 2,
									"numoutlets" : 1,
									"outlettype" : [ "" ],
									"patching_rect" : [ 567.0, 339.0, 34.0, 22.0 ],
									"style" : "",
									"text" : "gate"
								}

							}
, 							{
								"box" : 								{
									"format" : 6,
									"id" : "obj-38",
									"maxclass" : "flonum",
									"numinlets" : 1,
									"numoutlets" : 2,
									"outlettype" : [ "", "bang" ],
									"parameter_enable" : 0,
									"patching_rect" : [ 596.625, 231.0, 118.0, 22.0 ],
									"style" : ""
								}

							}
, 							{
								"box" : 								{
									"id" : "obj-22",
									"maxclass" : "newobj",
									"numinlets" : 2,
									"numoutlets" : 1,
									"outlettype" : [ "int" ],
									"patching_rect" : [ 545.0, 231.0, 51.0, 22.0 ],
									"style" : "",
									"text" : "> 4000."
								}

							}
, 							{
								"box" : 								{
									"id" : "obj-21",
									"maxclass" : "button",
									"numinlets" : 1,
									"numoutlets" : 1,
									"outlettype" : [ "bang" ],
									"patching_rect" : [ 545.0, 171.0, 19.0, 19.0 ],
									"style" : ""
								}

							}
, 							{
								"box" : 								{
									"id" : "obj-17",
									"maxclass" : "newobj",
									"numinlets" : 2,
									"numoutlets" : 2,
									"outlettype" : [ "float", "" ],
									"patching_rect" : [ 545.0, 203.0, 37.0, 22.0 ],
									"style" : "",
									"text" : "timer"
								}

							}
, 							{
								"box" : 								{
									"id" : "obj-60",
									"maxclass" : "number",
									"numinlets" : 1,
									"numoutlets" : 2,
									"outlettype" : [ "", "bang" ],
									"parameter_enable" : 0,
									"patching_rect" : [ 494.125, 137.0, 50.0, 22.0 ],
									"style" : "",
									"tricolor" : [ 0.0, 0.078431, 0.321569, 1.0 ]
								}

							}
, 							{
								"box" : 								{
									"id" : "obj-58",
									"maxclass" : "newobj",
									"numinlets" : 1,
									"numoutlets" : 2,
									"outlettype" : [ "", "" ],
									"patching_rect" : [ 567.0, 363.0, 153.0, 22.0 ],
									"style" : "",
									"text" : "cycle 2"
								}

							}
, 							{
								"box" : 								{
									"id" : "obj-56",
									"maxclass" : "newobj",
									"numinlets" : 2,
									"numoutlets" : 1,
									"outlettype" : [ "" ],
									"patching_rect" : [ 567.0, 399.0, 153.0, 22.0 ],
									"style" : "",
									"text" : "if $f1 == $f2 then 0. else 1."
								}

							}
, 							{
								"box" : 								{
									"id" : "obj-54",
									"int" : 1,
									"maxclass" : "gswitch",
									"numinlets" : 3,
									"numoutlets" : 1,
									"outlettype" : [ "" ],
									"parameter_enable" : 0,
									"patching_rect" : [ 425.375, 385.0, 50.0, 22.0 ],
									"style" : ""
								}

							}
, 							{
								"box" : 								{
									"bgcolor" : [ 0.65098, 0.121569, 0.121569, 1.0 ],
									"format" : 6,
									"id" : "obj-6",
									"maxclass" : "flonum",
									"numinlets" : 1,
									"numoutlets" : 2,
									"outlettype" : [ "", "bang" ],
									"parameter_enable" : 0,
									"patching_rect" : [ 309.0625, 711.0, 50.0, 22.0 ],
									"style" : ""
								}

							}
, 							{
								"box" : 								{
									"id" : "obj-5",
									"maxclass" : "spectroscope~",
									"numinlets" : 2,
									"numoutlets" : 1,
									"outlettype" : [ "" ],
									"patching_rect" : [ 294.5, 872.0, 192.0, 116.0 ],
									"style" : ""
								}

							}
, 							{
								"box" : 								{
									"id" : "obj-185",
									"maxclass" : "number",
									"numinlets" : 1,
									"numoutlets" : 2,
									"outlettype" : [ "", "bang" ],
									"parameter_enable" : 0,
									"patching_rect" : [ 238.0625, 711.0, 50.0, 22.0 ],
									"style" : ""
								}

							}
, 							{
								"box" : 								{
									"id" : "obj-41",
									"maxclass" : "message",
									"numinlets" : 2,
									"numoutlets" : 1,
									"outlettype" : [ "" ],
									"patching_rect" : [ 173.5625, 941.0, 74.0, 22.0 ],
									"style" : "",
									"text" : "stop"
								}

							}
, 							{
								"box" : 								{
									"id" : "obj-39",
									"maxclass" : "message",
									"numinlets" : 2,
									"numoutlets" : 1,
									"outlettype" : [ "" ],
									"patching_rect" : [ 156.5625, 906.0, 74.0, 22.0 ],
									"style" : "",
									"text" : "startwindow"
								}

							}
, 							{
								"box" : 								{
									"id" : "obj-36",
									"maxclass" : "newobj",
									"numinlets" : 2,
									"numoutlets" : 0,
									"patching_rect" : [ 255.0625, 941.0, 42.0, 22.0 ],
									"style" : "",
									"text" : "dac~"
								}

							}
, 							{
								"box" : 								{
									"id" : "obj-35",
									"maxclass" : "newobj",
									"numinlets" : 2,
									"numoutlets" : 1,
									"outlettype" : [ "signal" ],
									"patching_rect" : [ 238.0625, 911.0, 42.0, 22.0 ],
									"style" : "",
									"text" : "*~ 0.5"
								}

							}
, 							{
								"box" : 								{
									"id" : "obj-32",
									"maxclass" : "message",
									"numinlets" : 2,
									"numoutlets" : 1,
									"outlettype" : [ "" ],
									"patching_rect" : [ 309.0625, 737.0, 50.0, 22.0 ],
									"style" : "",
									"text" : "$1 50"
								}

							}
, 							{
								"box" : 								{
									"id" : "obj-33",
									"maxclass" : "newobj",
									"numinlets" : 2,
									"numoutlets" : 2,
									"outlettype" : [ "signal", "bang" ],
									"patching_rect" : [ 309.0625, 785.0, 50.0, 22.0 ],
									"style" : "",
									"text" : "line~"
								}

							}
, 							{
								"box" : 								{
									"id" : "obj-27",
									"maxclass" : "newobj",
									"numinlets" : 2,
									"numoutlets" : 1,
									"outlettype" : [ "signal" ],
									"patching_rect" : [ 238.0625, 815.0, 90.0, 22.0 ],
									"style" : "",
									"text" : "*~"
								}

							}
, 							{
								"box" : 								{
									"id" : "obj-26",
									"maxclass" : "newobj",
									"numinlets" : 2,
									"numoutlets" : 1,
									"outlettype" : [ "signal" ],
									"patching_rect" : [ 238.0625, 737.0, 55.0, 22.0 ],
									"style" : "",
									"text" : "cycle~ 1"
								}

							}
, 							{
								"box" : 								{
									"id" : "obj-18",
									"maxclass" : "newobj",
									"numinlets" : 3,
									"numoutlets" : 1,
									"outlettype" : [ "signal" ],
									"patching_rect" : [ 238.0625, 845.0, 92.0, 22.0 ],
									"style" : "",
									"text" : "lookup~ FTable"
								}

							}
, 							{
								"box" : 								{
									"id" : "obj-31",
									"maxclass" : "newobj",
									"numinlets" : 0,
									"numoutlets" : 1,
									"outlettype" : [ "" ],
									"patching_rect" : [ 436.5, 431.0, 50.0, 22.0 ],
									"style" : "",
									"text" : "r n2"
								}

							}
, 							{
								"box" : 								{
									"id" : "obj-30",
									"maxclass" : "newobj",
									"numinlets" : 0,
									"numoutlets" : 1,
									"outlettype" : [ "" ],
									"patching_rect" : [ 259.5, 431.0, 50.0, 22.0 ],
									"style" : "",
									"text" : "r n1"
								}

							}
, 							{
								"box" : 								{
									"id" : "obj-29",
									"maxclass" : "newobj",
									"numinlets" : 1,
									"numoutlets" : 0,
									"patching_rect" : [ 141.5, 349.0, 33.0, 22.0 ],
									"style" : "",
									"text" : "s n2"
								}

							}
, 							{
								"box" : 								{
									"id" : "obj-28",
									"maxclass" : "newobj",
									"numinlets" : 1,
									"numoutlets" : 0,
									"patching_rect" : [ 98.5, 349.0, 33.0, 22.0 ],
									"style" : "",
									"text" : "s n1"
								}

							}
, 							{
								"box" : 								{
									"id" : "obj-24",
									"maxclass" : "newobj",
									"numinlets" : 1,
									"numoutlets" : 2,
									"outlettype" : [ "float", "float" ],
									"patching_rect" : [ 98.5, 325.0, 76.0, 22.0 ],
									"style" : "",
									"text" : "unpack 0. 0."
								}

							}
, 							{
								"box" : 								{
									"id" : "obj-23",
									"maxclass" : "message",
									"numinlets" : 2,
									"numoutlets" : 1,
									"outlettype" : [ "" ],
									"patching_rect" : [ 98.5, 301.0, 78.0, 22.0 ],
									"style" : "",
									"text" : "-0.963 0.423"
								}

							}
, 							{
								"box" : 								{
									"id" : "obj-25",
									"maxclass" : "toggle",
									"numinlets" : 1,
									"numoutlets" : 1,
									"outlettype" : [ "int" ],
									"parameter_enable" : 0,
									"patching_rect" : [ 268.75, 44.0, 19.0, 19.0 ],
									"style" : ""
								}

							}
, 							{
								"box" : 								{
									"format" : 6,
									"id" : "obj-11",
									"maxclass" : "flonum",
									"numinlets" : 1,
									"numoutlets" : 2,
									"outlettype" : [ "", "bang" ],
									"parameter_enable" : 0,
									"patching_rect" : [ 440.875, 203.0, 50.0, 22.0 ],
									"style" : ""
								}

							}
, 							{
								"box" : 								{
									"comment" : "",
									"id" : "obj-9",
									"index" : 2,
									"maxclass" : "outlet",
									"numinlets" : 1,
									"numoutlets" : 0,
									"patching_rect" : [ 143.5, 763.0, 30.0, 30.0 ],
									"style" : ""
								}

							}
, 							{
								"box" : 								{
									"comment" : "",
									"id" : "obj-7",
									"index" : 1,
									"maxclass" : "outlet",
									"numinlets" : 1,
									"numoutlets" : 0,
									"patching_rect" : [ 75.0, 763.0, 30.0, 30.0 ],
									"style" : ""
								}

							}
, 							{
								"box" : 								{
									"comment" : "",
									"id" : "obj-4",
									"index" : 1,
									"maxclass" : "inlet",
									"numinlets" : 0,
									"numoutlets" : 1,
									"outlettype" : [ "int" ],
									"patching_rect" : [ 293.75, -24.0, 30.0, 30.0 ],
									"style" : ""
								}

							}
, 							{
								"box" : 								{
									"id" : "obj-2",
									"maxclass" : "button",
									"numinlets" : 1,
									"numoutlets" : 1,
									"outlettype" : [ "bang" ],
									"patching_rect" : [ 293.75, 18.0, 19.0, 19.0 ],
									"style" : ""
								}

							}
, 							{
								"box" : 								{
									"id" : "obj-37",
									"int" : 1,
									"maxclass" : "gswitch",
									"numinlets" : 3,
									"numoutlets" : 1,
									"outlettype" : [ "" ],
									"parameter_enable" : 0,
									"patching_rect" : [ 175.0, 425.0, 50.0, 22.0 ],
									"style" : ""
								}

							}
, 							{
								"box" : 								{
									"format" : 6,
									"id" : "obj-180",
									"maxclass" : "flonum",
									"numinlets" : 1,
									"numoutlets" : 2,
									"outlettype" : [ "", "bang" ],
									"parameter_enable" : 0,
									"patching_rect" : [ 352.5, 425.0, 50.0, 22.0 ],
									"style" : ""
								}

							}
, 							{
								"box" : 								{
									"id" : "obj-181",
									"maxclass" : "newobj",
									"numinlets" : 2,
									"numoutlets" : 1,
									"outlettype" : [ "float" ],
									"patching_rect" : [ 320.5, 425.0, 29.5, 22.0 ],
									"style" : "",
									"text" : "* 0."
								}

							}
, 							{
								"box" : 								{
									"format" : 6,
									"id" : "obj-179",
									"maxclass" : "flonum",
									"numinlets" : 1,
									"numoutlets" : 2,
									"outlettype" : [ "", "bang" ],
									"parameter_enable" : 0,
									"patching_rect" : [ 175.0, 455.0, 50.0, 22.0 ],
									"style" : ""
								}

							}
, 							{
								"box" : 								{
									"id" : "obj-177",
									"maxclass" : "newobj",
									"numinlets" : 2,
									"numoutlets" : 1,
									"outlettype" : [ "float" ],
									"patching_rect" : [ 143.5, 425.0, 29.5, 22.0 ],
									"style" : "",
									"text" : "* 0."
								}

							}
, 							{
								"box" : 								{
									"format" : 6,
									"id" : "obj-174",
									"maxclass" : "flonum",
									"numinlets" : 1,
									"numoutlets" : 2,
									"outlettype" : [ "", "bang" ],
									"parameter_enable" : 0,
									"patching_rect" : [ 259.5, 455.0, 50.0, 22.0 ],
									"style" : ""
								}

							}
, 							{
								"box" : 								{
									"id" : "obj-175",
									"maxclass" : "newobj",
									"numinlets" : 2,
									"numoutlets" : 1,
									"outlettype" : [ "float" ],
									"patching_rect" : [ 259.5, 484.0, 29.5, 22.0 ],
									"style" : "",
									"text" : "* 1."
								}

							}
, 							{
								"box" : 								{
									"format" : 6,
									"id" : "obj-173",
									"maxclass" : "flonum",
									"numinlets" : 1,
									"numoutlets" : 2,
									"outlettype" : [ "", "bang" ],
									"parameter_enable" : 0,
									"patching_rect" : [ 436.5, 455.0, 50.0, 22.0 ],
									"style" : ""
								}

							}
, 							{
								"box" : 								{
									"id" : "obj-167",
									"maxclass" : "newobj",
									"numinlets" : 2,
									"numoutlets" : 1,
									"outlettype" : [ "float" ],
									"patching_rect" : [ 436.5, 484.0, 29.5, 22.0 ],
									"style" : "",
									"text" : "* 1."
								}

							}
, 							{
								"box" : 								{
									"id" : "obj-166",
									"maxclass" : "newobj",
									"numinlets" : 2,
									"numoutlets" : 1,
									"outlettype" : [ "float" ],
									"patching_rect" : [ 448.375, 599.0, 29.5, 22.0 ],
									"style" : "",
									"text" : "- 0."
								}

							}
, 							{
								"box" : 								{
									"id" : "obj-165",
									"maxclass" : "newobj",
									"numinlets" : 2,
									"numoutlets" : 1,
									"outlettype" : [ "float" ],
									"patching_rect" : [ 402.375, 599.0, 31.0, 22.0 ],
									"style" : "",
									"text" : "+ 0."
								}

							}
, 							{
								"box" : 								{
									"id" : "obj-164",
									"maxclass" : "newobj",
									"numinlets" : 2,
									"numoutlets" : 1,
									"outlettype" : [ "float" ],
									"patching_rect" : [ 143.5, 684.0, 239.125, 22.0 ],
									"style" : "",
									"text" : "+ 0."
								}

							}
, 							{
								"box" : 								{
									"id" : "obj-163",
									"maxclass" : "newobj",
									"numinlets" : 2,
									"numoutlets" : 1,
									"outlettype" : [ "float" ],
									"patching_rect" : [ 402.375, 656.0, 65.0, 22.0 ],
									"style" : "",
									"text" : "+ 0."
								}

							}
, 							{
								"box" : 								{
									"id" : "obj-162",
									"maxclass" : "newobj",
									"numinlets" : 1,
									"numoutlets" : 1,
									"outlettype" : [ "float" ],
									"patching_rect" : [ 448.375, 627.0, 29.0, 22.0 ],
									"style" : "",
									"text" : "cos"
								}

							}
, 							{
								"box" : 								{
									"id" : "obj-161",
									"maxclass" : "newobj",
									"numinlets" : 1,
									"numoutlets" : 1,
									"outlettype" : [ "float" ],
									"patching_rect" : [ 402.375, 627.0, 29.0, 22.0 ],
									"style" : "",
									"text" : "cos"
								}

							}
, 							{
								"box" : 								{
									"id" : "obj-160",
									"maxclass" : "newobj",
									"numinlets" : 2,
									"numoutlets" : 1,
									"outlettype" : [ "float" ],
									"patching_rect" : [ 363.625, 656.0, 29.5, 22.0 ],
									"style" : "",
									"text" : "* 0."
								}

							}
, 							{
								"box" : 								{
									"id" : "obj-159",
									"maxclass" : "newobj",
									"numinlets" : 2,
									"numoutlets" : 1,
									"outlettype" : [ "float" ],
									"patching_rect" : [ 363.625, 550.0, 29.5, 22.0 ],
									"style" : "",
									"text" : "* 0."
								}

							}
, 							{
								"box" : 								{
									"id" : "obj-158",
									"maxclass" : "newobj",
									"numinlets" : 2,
									"numoutlets" : 1,
									"outlettype" : [ "float" ],
									"patching_rect" : [ 143.5, 548.0, 196.0, 22.0 ],
									"style" : "",
									"text" : "+ 0."
								}

							}
, 							{
								"box" : 								{
									"id" : "obj-155",
									"maxclass" : "newobj",
									"numinlets" : 2,
									"numoutlets" : 1,
									"outlettype" : [ "" ],
									"patching_rect" : [ 320.5, 515.0, 135.0, 22.0 ],
									"style" : "",
									"text" : "expr ($f1 + 1)*$f2*$f2/2"
								}

							}
, 							{
								"box" : 								{
									"id" : "obj-156",
									"maxclass" : "newobj",
									"numinlets" : 2,
									"numoutlets" : 1,
									"outlettype" : [ "float" ],
									"patching_rect" : [ 320.5, 455.0, 29.5, 22.0 ],
									"style" : "",
									"text" : "* 2."
								}

							}
, 							{
								"box" : 								{
									"id" : "obj-157",
									"maxclass" : "newobj",
									"numinlets" : 1,
									"numoutlets" : 1,
									"outlettype" : [ "float" ],
									"patching_rect" : [ 320.5, 484.0, 29.0, 22.0 ],
									"style" : "",
									"text" : "cos"
								}

							}
, 							{
								"box" : 								{
									"id" : "obj-153",
									"maxclass" : "newobj",
									"numinlets" : 2,
									"numoutlets" : 1,
									"outlettype" : [ "" ],
									"patching_rect" : [ 143.5, 515.0, 135.0, 22.0 ],
									"style" : "",
									"text" : "expr ($f1 + 1)*$f2*$f2/2"
								}

							}
, 							{
								"box" : 								{
									"id" : "obj-150",
									"maxclass" : "newobj",
									"numinlets" : 2,
									"numoutlets" : 1,
									"outlettype" : [ "float" ],
									"patching_rect" : [ 143.5, 455.0, 29.5, 22.0 ],
									"style" : "",
									"text" : "* 2."
								}

							}
, 							{
								"box" : 								{
									"id" : "obj-149",
									"maxclass" : "newobj",
									"numinlets" : 1,
									"numoutlets" : 1,
									"outlettype" : [ "float" ],
									"patching_rect" : [ 143.5, 484.0, 29.0, 22.0 ],
									"style" : "",
									"text" : "cos"
								}

							}
, 							{
								"box" : 								{
									"fontname" : "Arial",
									"fontsize" : 13.0,
									"id" : "obj-44",
									"maxclass" : "newobj",
									"numinlets" : 5,
									"numoutlets" : 4,
									"outlettype" : [ "int", "", "", "int" ],
									"patching_rect" : [ 440.875, 171.0, 90.0, 23.0 ],
									"style" : "",
									"text" : "counter 0 512"
								}

							}
, 							{
								"box" : 								{
									"format" : 6,
									"id" : "obj-91",
									"maxclass" : "flonum",
									"numinlets" : 1,
									"numoutlets" : 2,
									"outlettype" : [ "", "bang" ],
									"parameter_enable" : 0,
									"patching_rect" : [ 183.5, 735.0, 48.0, 22.0 ],
									"style" : ""
								}

							}
, 							{
								"box" : 								{
									"format" : 6,
									"id" : "obj-92",
									"maxclass" : "flonum",
									"numinlets" : 1,
									"numoutlets" : 2,
									"outlettype" : [ "", "bang" ],
									"parameter_enable" : 0,
									"patching_rect" : [ 183.5, 711.0, 48.0, 22.0 ],
									"style" : ""
								}

							}
, 							{
								"box" : 								{
									"id" : "obj-89",
									"maxclass" : "newobj",
									"numinlets" : 2,
									"numoutlets" : 1,
									"outlettype" : [ "float" ],
									"patching_rect" : [ 143.5, 735.0, 31.0, 22.0 ],
									"style" : "",
									"text" : "+ 0."
								}

							}
, 							{
								"box" : 								{
									"id" : "obj-90",
									"maxclass" : "newobj",
									"numinlets" : 2,
									"numoutlets" : 1,
									"outlettype" : [ "float" ],
									"patching_rect" : [ 143.5, 711.0, 29.5, 22.0 ],
									"style" : "",
									"text" : "* 0."
								}

							}
, 							{
								"box" : 								{
									"id" : "obj-57",
									"maxclass" : "newobj",
									"numinlets" : 1,
									"numoutlets" : 3,
									"outlettype" : [ "bang", "float", "float" ],
									"patching_rect" : [ 293.75, 80.0, 40.0, 22.0 ],
									"style" : "",
									"text" : "t b f f"
								}

							}
, 							{
								"box" : 								{
									"id" : "obj-52",
									"maxclass" : "newobj",
									"numinlets" : 6,
									"numoutlets" : 1,
									"outlettype" : [ "" ],
									"patching_rect" : [ 143.5, 385.0, 103.0, 22.0 ],
									"style" : "",
									"text" : "scale 0 512 -1. 1."
								}

							}
, 							{
								"box" : 								{
									"id" : "obj-50",
									"maxclass" : "toggle",
									"numinlets" : 1,
									"numoutlets" : 1,
									"outlettype" : [ "int" ],
									"parameter_enable" : 0,
									"patching_rect" : [ 293.75, 44.0, 19.0, 19.0 ],
									"style" : ""
								}

							}
, 							{
								"box" : 								{
									"fontname" : "Arial",
									"fontsize" : 13.0,
									"id" : "obj-8",
									"maxclass" : "newobj",
									"numinlets" : 2,
									"numoutlets" : 1,
									"outlettype" : [ "bang" ],
									"patching_rect" : [ 293.75, 104.0, 83.0, 23.0 ],
									"style" : "",
									"text" : "qmetro 5120"
								}

							}
, 							{
								"box" : 								{
									"id" : "obj-20",
									"maxclass" : "button",
									"numinlets" : 1,
									"numoutlets" : 1,
									"outlettype" : [ "bang" ],
									"patching_rect" : [ 293.75, 293.5, 19.0, 19.0 ],
									"style" : "velvet"
								}

							}
, 							{
								"box" : 								{
									"id" : "obj-15",
									"maxclass" : "newobj",
									"numinlets" : 2,
									"numoutlets" : 3,
									"outlettype" : [ "bang", "bang", "int" ],
									"patching_rect" : [ 33.0, 349.0, 61.0, 22.0 ],
									"style" : "",
									"text" : "Uzi 513 0"
								}

							}
 ],
						"lines" : [ 							{
								"patchline" : 								{
									"destination" : [ "obj-10", 0 ],
									"disabled" : 0,
									"hidden" : 0,
									"source" : [ "obj-1", 0 ]
								}

							}
, 							{
								"patchline" : 								{
									"destination" : [ "obj-20", 0 ],
									"disabled" : 0,
									"hidden" : 0,
									"midpoints" : [ 450.375, 292.75, 303.25, 292.75 ],
									"order" : 2,
									"source" : [ "obj-11", 0 ]
								}

							}
, 							{
								"patchline" : 								{
									"destination" : [ "obj-37", 1 ],
									"disabled" : 0,
									"hidden" : 0,
									"midpoints" : [ 450.375, 240.0, 404.0, 240.0, 404.0, 424.0 ],
									"order" : 3,
									"source" : [ "obj-11", 0 ]
								}

							}
, 							{
								"patchline" : 								{
									"destination" : [ "obj-40", 1 ],
									"disabled" : 0,
									"hidden" : 0,
									"midpoints" : [ 450.375, 335.5, 591.5, 335.5 ],
									"order" : 0,
									"source" : [ "obj-11", 0 ]
								}

							}
, 							{
								"patchline" : 								{
									"destination" : [ "obj-54", 1 ],
									"disabled" : 0,
									"hidden" : 0,
									"order" : 1,
									"source" : [ "obj-11", 0 ]
								}

							}
, 							{
								"patchline" : 								{
									"destination" : [ "obj-15", 0 ],
									"disabled" : 0,
									"hidden" : 0,
									"source" : [ "obj-13", 0 ],
									"watchpoint_flags" : 1,
									"watchpoint_id" : 2
								}

							}
, 							{
								"patchline" : 								{
									"destination" : [ "obj-153", 0 ],
									"disabled" : 0,
									"hidden" : 0,
									"source" : [ "obj-149", 0 ]
								}

							}
, 							{
								"patchline" : 								{
									"destination" : [ "obj-52", 0 ],
									"disabled" : 0,
									"hidden" : 0,
									"midpoints" : [ 84.5, 384.0, 153.0, 384.0 ],
									"order" : 0,
									"source" : [ "obj-15", 2 ]
								}

							}
, 							{
								"patchline" : 								{
									"destination" : [ "obj-7", 0 ],
									"disabled" : 0,
									"hidden" : 0,
									"order" : 1,
									"source" : [ "obj-15", 2 ]
								}

							}
, 							{
								"patchline" : 								{
									"destination" : [ "obj-149", 0 ],
									"disabled" : 0,
									"hidden" : 0,
									"source" : [ "obj-150", 0 ]
								}

							}
, 							{
								"patchline" : 								{
									"destination" : [ "obj-158", 0 ],
									"disabled" : 0,
									"hidden" : 0,
									"source" : [ "obj-153", 0 ]
								}

							}
, 							{
								"patchline" : 								{
									"destination" : [ "obj-158", 1 ],
									"disabled" : 0,
									"hidden" : 0,
									"source" : [ "obj-155", 0 ]
								}

							}
, 							{
								"patchline" : 								{
									"destination" : [ "obj-157", 0 ],
									"disabled" : 0,
									"hidden" : 0,
									"source" : [ "obj-156", 0 ]
								}

							}
, 							{
								"patchline" : 								{
									"destination" : [ "obj-155", 0 ],
									"disabled" : 0,
									"hidden" : 0,
									"source" : [ "obj-157", 0 ]
								}

							}
, 							{
								"patchline" : 								{
									"destination" : [ "obj-164", 0 ],
									"disabled" : 0,
									"hidden" : 0,
									"source" : [ "obj-158", 0 ]
								}

							}
, 							{
								"patchline" : 								{
									"destination" : [ "obj-160", 0 ],
									"disabled" : 0,
									"hidden" : 0,
									"source" : [ "obj-159", 0 ]
								}

							}
, 							{
								"patchline" : 								{
									"destination" : [ "obj-54", 0 ],
									"disabled" : 0,
									"hidden" : 0,
									"midpoints" : [ 417.875, 385.0, 434.875, 385.0 ],
									"source" : [ "obj-16", 0 ]
								}

							}
, 							{
								"patchline" : 								{
									"destination" : [ "obj-164", 1 ],
									"disabled" : 0,
									"hidden" : 0,
									"source" : [ "obj-160", 0 ]
								}

							}
, 							{
								"patchline" : 								{
									"destination" : [ "obj-163", 0 ],
									"disabled" : 0,
									"hidden" : 0,
									"source" : [ "obj-161", 0 ]
								}

							}
, 							{
								"patchline" : 								{
									"destination" : [ "obj-163", 1 ],
									"disabled" : 0,
									"hidden" : 0,
									"source" : [ "obj-162", 0 ]
								}

							}
, 							{
								"patchline" : 								{
									"destination" : [ "obj-160", 1 ],
									"disabled" : 0,
									"hidden" : 0,
									"source" : [ "obj-163", 0 ]
								}

							}
, 							{
								"patchline" : 								{
									"destination" : [ "obj-90", 0 ],
									"disabled" : 0,
									"hidden" : 0,
									"source" : [ "obj-164", 0 ]
								}

							}
, 							{
								"patchline" : 								{
									"destination" : [ "obj-161", 0 ],
									"disabled" : 0,
									"hidden" : 0,
									"source" : [ "obj-165", 0 ]
								}

							}
, 							{
								"patchline" : 								{
									"destination" : [ "obj-162", 0 ],
									"disabled" : 0,
									"hidden" : 0,
									"source" : [ "obj-166", 0 ]
								}

							}
, 							{
								"patchline" : 								{
									"destination" : [ "obj-155", 1 ],
									"disabled" : 0,
									"hidden" : 0,
									"order" : 0,
									"source" : [ "obj-167", 0 ]
								}

							}
, 							{
								"patchline" : 								{
									"color" : [ 1.0, 0.0, 0.0, 0.901961 ],
									"destination" : [ "obj-159", 1 ],
									"disabled" : 0,
									"hidden" : 0,
									"midpoints" : [ 446.0, 540.5, 383.625, 540.5 ],
									"order" : 1,
									"source" : [ "obj-167", 0 ]
								}

							}
, 							{
								"patchline" : 								{
									"destination" : [ "obj-22", 0 ],
									"disabled" : 0,
									"hidden" : 0,
									"order" : 1,
									"source" : [ "obj-17", 0 ]
								}

							}
, 							{
								"patchline" : 								{
									"destination" : [ "obj-38", 0 ],
									"disabled" : 0,
									"hidden" : 0,
									"midpoints" : [ 554.5, 227.5, 606.125, 227.5 ],
									"order" : 0,
									"source" : [ "obj-17", 0 ]
								}

							}
, 							{
								"patchline" : 								{
									"destination" : [ "obj-167", 0 ],
									"disabled" : 0,
									"hidden" : 0,
									"source" : [ "obj-173", 0 ]
								}

							}
, 							{
								"patchline" : 								{
									"destination" : [ "obj-175", 0 ],
									"disabled" : 0,
									"hidden" : 0,
									"source" : [ "obj-174", 0 ]
								}

							}
, 							{
								"patchline" : 								{
									"destination" : [ "obj-153", 1 ],
									"disabled" : 0,
									"hidden" : 0,
									"order" : 1,
									"source" : [ "obj-175", 0 ]
								}

							}
, 							{
								"patchline" : 								{
									"color" : [ 1.0, 0.0, 0.0, 0.901961 ],
									"destination" : [ "obj-159", 0 ],
									"disabled" : 0,
									"hidden" : 0,
									"midpoints" : [ 269.0, 540.5, 373.125, 540.5 ],
									"order" : 0,
									"source" : [ "obj-175", 0 ]
								}

							}
, 							{
								"patchline" : 								{
									"destination" : [ "obj-150", 0 ],
									"disabled" : 0,
									"hidden" : 0,
									"order" : 2,
									"source" : [ "obj-177", 0 ]
								}

							}
, 							{
								"patchline" : 								{
									"color" : [ 0.145098, 0.07451, 0.376471, 1.0 ],
									"destination" : [ "obj-165", 0 ],
									"disabled" : 0,
									"hidden" : 0,
									"midpoints" : [ 153.0, 598.5, 411.875, 598.5 ],
									"order" : 1,
									"source" : [ "obj-177", 0 ]
								}

							}
, 							{
								"patchline" : 								{
									"color" : [ 0.615686, 0.552941, 0.827451, 1.0 ],
									"destination" : [ "obj-166", 0 ],
									"disabled" : 0,
									"hidden" : 0,
									"midpoints" : [ 153.0, 542.5, 457.875, 542.5 ],
									"order" : 0,
									"source" : [ "obj-177", 0 ]
								}

							}
, 							{
								"patchline" : 								{
									"destination" : [ "obj-177", 1 ],
									"disabled" : 0,
									"hidden" : 0,
									"source" : [ "obj-179", 0 ]
								}

							}
, 							{
								"patchline" : 								{
									"destination" : [ "obj-35", 0 ],
									"disabled" : 1,
									"hidden" : 0,
									"source" : [ "obj-18", 0 ]
								}

							}
, 							{
								"patchline" : 								{
									"destination" : [ "obj-5", 0 ],
									"disabled" : 0,
									"hidden" : 0,
									"midpoints" : [ 247.5625, 869.5, 304.0, 869.5 ],
									"source" : [ "obj-18", 0 ]
								}

							}
, 							{
								"patchline" : 								{
									"destination" : [ "obj-181", 1 ],
									"disabled" : 0,
									"hidden" : 0,
									"source" : [ "obj-180", 0 ]
								}

							}
, 							{
								"patchline" : 								{
									"destination" : [ "obj-156", 0 ],
									"disabled" : 0,
									"hidden" : 0,
									"order" : 2,
									"source" : [ "obj-181", 0 ]
								}

							}
, 							{
								"patchline" : 								{
									"color" : [ 0.145098, 0.07451, 0.376471, 1.0 ],
									"destination" : [ "obj-165", 1 ],
									"disabled" : 0,
									"hidden" : 0,
									"midpoints" : [ 330.0, 593.5, 423.875, 593.5 ],
									"order" : 1,
									"source" : [ "obj-181", 0 ]
								}

							}
, 							{
								"patchline" : 								{
									"color" : [ 0.615686, 0.552941, 0.827451, 1.0 ],
									"destination" : [ "obj-166", 1 ],
									"disabled" : 0,
									"hidden" : 0,
									"midpoints" : [ 330.0, 542.5, 468.375, 542.5 ],
									"order" : 0,
									"source" : [ "obj-181", 0 ]
								}

							}
, 							{
								"patchline" : 								{
									"destination" : [ "obj-26", 0 ],
									"disabled" : 0,
									"hidden" : 0,
									"source" : [ "obj-185", 0 ]
								}

							}
, 							{
								"patchline" : 								{
									"destination" : [ "obj-50", 0 ],
									"disabled" : 0,
									"hidden" : 0,
									"source" : [ "obj-2", 0 ]
								}

							}
, 							{
								"patchline" : 								{
									"destination" : [ "obj-12", 0 ],
									"disabled" : 0,
									"hidden" : 0,
									"source" : [ "obj-20", 0 ]
								}

							}
, 							{
								"patchline" : 								{
									"destination" : [ "obj-17", 1 ],
									"disabled" : 0,
									"hidden" : 0,
									"order" : 0,
									"source" : [ "obj-21", 0 ]
								}

							}
, 							{
								"patchline" : 								{
									"destination" : [ "obj-17", 0 ],
									"disabled" : 0,
									"hidden" : 0,
									"order" : 1,
									"source" : [ "obj-21", 0 ]
								}

							}
, 							{
								"patchline" : 								{
									"destination" : [ "obj-43", 0 ],
									"disabled" : 0,
									"hidden" : 0,
									"order" : 1,
									"source" : [ "obj-22", 0 ]
								}

							}
, 							{
								"patchline" : 								{
									"destination" : [ "obj-47", 0 ],
									"disabled" : 0,
									"hidden" : 0,
									"order" : 0,
									"source" : [ "obj-22", 0 ]
								}

							}
, 							{
								"patchline" : 								{
									"destination" : [ "obj-24", 0 ],
									"disabled" : 0,
									"hidden" : 0,
									"source" : [ "obj-23", 0 ]
								}

							}
, 							{
								"patchline" : 								{
									"destination" : [ "obj-28", 0 ],
									"disabled" : 0,
									"hidden" : 0,
									"source" : [ "obj-24", 0 ]
								}

							}
, 							{
								"patchline" : 								{
									"destination" : [ "obj-29", 0 ],
									"disabled" : 0,
									"hidden" : 0,
									"midpoints" : [ 165.0, 347.75, 151.0, 347.75 ],
									"source" : [ "obj-24", 1 ]
								}

							}
, 							{
								"patchline" : 								{
									"color" : [ 0.258824, 0.258824, 0.258824, 1.0 ],
									"destination" : [ "obj-8", 0 ],
									"disabled" : 0,
									"hidden" : 0,
									"midpoints" : [ 278.25, 64.599991, 303.25, 64.599991 ],
									"source" : [ "obj-25", 0 ]
								}

							}
, 							{
								"patchline" : 								{
									"destination" : [ "obj-27", 0 ],
									"disabled" : 0,
									"hidden" : 0,
									"source" : [ "obj-26", 0 ]
								}

							}
, 							{
								"patchline" : 								{
									"destination" : [ "obj-18", 0 ],
									"disabled" : 0,
									"hidden" : 0,
									"source" : [ "obj-27", 0 ]
								}

							}
, 							{
								"patchline" : 								{
									"destination" : [ "obj-174", 0 ],
									"disabled" : 0,
									"hidden" : 0,
									"source" : [ "obj-30", 0 ]
								}

							}
, 							{
								"patchline" : 								{
									"destination" : [ "obj-173", 0 ],
									"disabled" : 0,
									"hidden" : 0,
									"source" : [ "obj-31", 0 ]
								}

							}
, 							{
								"patchline" : 								{
									"destination" : [ "obj-33", 0 ],
									"disabled" : 0,
									"hidden" : 0,
									"source" : [ "obj-32", 0 ]
								}

							}
, 							{
								"patchline" : 								{
									"destination" : [ "obj-27", 1 ],
									"disabled" : 0,
									"hidden" : 0,
									"source" : [ "obj-33", 0 ]
								}

							}
, 							{
								"patchline" : 								{
									"color" : [ 0.141176, 0.25098, 0.109804, 1.0 ],
									"destination" : [ "obj-42", 0 ],
									"disabled" : 0,
									"hidden" : 0,
									"source" : [ "obj-34", 0 ]
								}

							}
, 							{
								"patchline" : 								{
									"destination" : [ "obj-36", 1 ],
									"disabled" : 0,
									"hidden" : 0,
									"order" : 0,
									"source" : [ "obj-35", 0 ]
								}

							}
, 							{
								"patchline" : 								{
									"destination" : [ "obj-36", 0 ],
									"disabled" : 0,
									"hidden" : 0,
									"order" : 1,
									"source" : [ "obj-35", 0 ]
								}

							}
, 							{
								"patchline" : 								{
									"destination" : [ "obj-179", 0 ],
									"disabled" : 0,
									"hidden" : 0,
									"source" : [ "obj-37", 0 ]
								}

							}
, 							{
								"patchline" : 								{
									"destination" : [ "obj-36", 0 ],
									"disabled" : 0,
									"hidden" : 0,
									"midpoints" : [ 166.0625, 939.5, 264.5625, 939.5 ],
									"source" : [ "obj-39", 0 ]
								}

							}
, 							{
								"patchline" : 								{
									"destination" : [ "obj-2", 0 ],
									"disabled" : 0,
									"hidden" : 0,
									"source" : [ "obj-4", 0 ]
								}

							}
, 							{
								"patchline" : 								{
									"destination" : [ "obj-58", 0 ],
									"disabled" : 0,
									"hidden" : 0,
									"source" : [ "obj-40", 0 ]
								}

							}
, 							{
								"patchline" : 								{
									"destination" : [ "obj-36", 0 ],
									"disabled" : 0,
									"hidden" : 0,
									"midpoints" : [ 183.0625, 963.0, 250.5625, 963.0, 250.5625, 935.0, 264.5625, 935.0 ],
									"source" : [ "obj-41", 0 ]
								}

							}
, 							{
								"patchline" : 								{
									"destination" : [ "obj-54", 2 ],
									"disabled" : 0,
									"hidden" : 0,
									"source" : [ "obj-42", 0 ]
								}

							}
, 							{
								"patchline" : 								{
									"destination" : [ "obj-11", 0 ],
									"disabled" : 0,
									"hidden" : 0,
									"source" : [ "obj-44", 0 ]
								}

							}
, 							{
								"patchline" : 								{
									"destination" : [ "obj-42", 1 ],
									"disabled" : 0,
									"hidden" : 0,
									"source" : [ "obj-46", 0 ]
								}

							}
, 							{
								"patchline" : 								{
									"destination" : [ "obj-49", 0 ],
									"disabled" : 0,
									"hidden" : 0,
									"source" : [ "obj-47", 1 ]
								}

							}
, 							{
								"patchline" : 								{
									"destination" : [ "obj-51", 0 ],
									"disabled" : 0,
									"hidden" : 0,
									"source" : [ "obj-48", 0 ]
								}

							}
, 							{
								"patchline" : 								{
									"destination" : [ "obj-64", 0 ],
									"disabled" : 0,
									"hidden" : 0,
									"source" : [ "obj-49", 0 ]
								}

							}
, 							{
								"patchline" : 								{
									"destination" : [ "obj-37", 0 ],
									"disabled" : 0,
									"hidden" : 0,
									"midpoints" : [ 303.25, 106.0, 184.5, 106.0 ],
									"order" : 1,
									"source" : [ "obj-50", 0 ],
									"watchpoint_flags" : 1,
									"watchpoint_id" : 1
								}

							}
, 							{
								"patchline" : 								{
									"destination" : [ "obj-57", 0 ],
									"disabled" : 0,
									"hidden" : 0,
									"order" : 0,
									"source" : [ "obj-50", 0 ]
								}

							}
, 							{
								"patchline" : 								{
									"destination" : [ "obj-53", 1 ],
									"disabled" : 0,
									"hidden" : 0,
									"order" : 0,
									"source" : [ "obj-51", 0 ]
								}

							}
, 							{
								"patchline" : 								{
									"destination" : [ "obj-55", 0 ],
									"disabled" : 0,
									"hidden" : 0,
									"order" : 1,
									"source" : [ "obj-51", 0 ]
								}

							}
, 							{
								"patchline" : 								{
									"destination" : [ "obj-177", 0 ],
									"disabled" : 0,
									"hidden" : 0,
									"order" : 1,
									"source" : [ "obj-52", 0 ]
								}

							}
, 							{
								"patchline" : 								{
									"destination" : [ "obj-181", 0 ],
									"disabled" : 0,
									"hidden" : 0,
									"midpoints" : [ 153.0, 419.5, 330.0, 419.5 ],
									"order" : 0,
									"source" : [ "obj-52", 0 ]
								}

							}
, 							{
								"patchline" : 								{
									"destination" : [ "obj-20", 0 ],
									"disabled" : 0,
									"hidden" : 0,
									"source" : [ "obj-53", 0 ]
								}

							}
, 							{
								"patchline" : 								{
									"destination" : [ "obj-37", 2 ],
									"disabled" : 0,
									"hidden" : 0,
									"midpoints" : [ 434.875, 414.5, 215.5, 414.5 ],
									"source" : [ "obj-54", 0 ]
								}

							}
, 							{
								"patchline" : 								{
									"destination" : [ "obj-53", 0 ],
									"disabled" : 0,
									"hidden" : 0,
									"source" : [ "obj-55", 0 ]
								}

							}
, 							{
								"patchline" : 								{
									"destination" : [ "obj-1", 0 ],
									"disabled" : 0,
									"hidden" : 0,
									"source" : [ "obj-56", 0 ]
								}

							}
, 							{
								"patchline" : 								{
									"destination" : [ "obj-8", 0 ],
									"disabled" : 0,
									"hidden" : 0,
									"source" : [ "obj-57", 0 ]
								}

							}
, 							{
								"patchline" : 								{
									"color" : [ 0.141176, 0.25098, 0.109804, 1.0 ],
									"destination" : [ "obj-19", 0 ],
									"disabled" : 0,
									"hidden" : 0,
									"order" : 1,
									"source" : [ "obj-58", 1 ]
								}

							}
, 							{
								"patchline" : 								{
									"destination" : [ "obj-56", 1 ],
									"disabled" : 0,
									"hidden" : 0,
									"order" : 0,
									"source" : [ "obj-58", 1 ]
								}

							}
, 							{
								"patchline" : 								{
									"destination" : [ "obj-56", 0 ],
									"disabled" : 0,
									"hidden" : 0,
									"source" : [ "obj-58", 0 ]
								}

							}
, 							{
								"patchline" : 								{
									"destination" : [ "obj-32", 0 ],
									"disabled" : 0,
									"hidden" : 0,
									"source" : [ "obj-6", 0 ]
								}

							}
, 							{
								"patchline" : 								{
									"destination" : [ "obj-21", 0 ],
									"disabled" : 0,
									"hidden" : 0,
									"midpoints" : [ 503.625, 164.5, 554.5, 164.5 ],
									"order" : 0,
									"source" : [ "obj-60", 0 ]
								}

							}
, 							{
								"patchline" : 								{
									"destination" : [ "obj-44", 3 ],
									"disabled" : 0,
									"hidden" : 0,
									"order" : 1,
									"source" : [ "obj-60", 0 ]
								}

							}
, 							{
								"patchline" : 								{
									"destination" : [ "obj-40", 0 ],
									"disabled" : 0,
									"hidden" : 0,
									"source" : [ "obj-64", 0 ]
								}

							}
, 							{
								"patchline" : 								{
									"destination" : [ "obj-44", 0 ],
									"disabled" : 0,
									"hidden" : 0,
									"midpoints" : [ 303.25, 130.0, 450.375, 130.0 ],
									"order" : 0,
									"source" : [ "obj-8", 0 ]
								}

							}
, 							{
								"patchline" : 								{
									"destination" : [ "obj-48", 0 ],
									"disabled" : 0,
									"hidden" : 0,
									"order" : 1,
									"source" : [ "obj-8", 0 ]
								}

							}
, 							{
								"patchline" : 								{
									"destination" : [ "obj-9", 0 ],
									"disabled" : 0,
									"hidden" : 0,
									"source" : [ "obj-89", 0 ]
								}

							}
, 							{
								"patchline" : 								{
									"destination" : [ "obj-89", 0 ],
									"disabled" : 0,
									"hidden" : 0,
									"source" : [ "obj-90", 0 ]
								}

							}
, 							{
								"patchline" : 								{
									"destination" : [ "obj-89", 1 ],
									"disabled" : 0,
									"hidden" : 0,
									"source" : [ "obj-91", 0 ]
								}

							}
, 							{
								"patchline" : 								{
									"destination" : [ "obj-90", 1 ],
									"disabled" : 0,
									"hidden" : 0,
									"source" : [ "obj-92", 0 ]
								}

							}
 ]
					}
,
					"patching_rect" : [ 155.5, 146.0, 120.0, 22.0 ],
					"presentation" : 1,
					"presentation_linecount" : 2,
					"presentation_rect" : [ 0.0, 0.0, 100.0, 36.0 ],
					"saved_object_attributes" : 					{
						"description" : "",
						"digest" : "",
						"globalpatchername" : "",
						"style" : "",
						"tags" : ""
					}
,
					"style" : "",
					"text" : "p Transfer function 1"
				}

			}
, 			{
				"box" : 				{
					"color" : [ 1.0, 0.0, 0.0, 1.0 ],
					"id" : "obj-99",
					"maxclass" : "newobj",
					"numinlets" : 3,
					"numoutlets" : 1,
					"outlettype" : [ "float" ],
					"patching_rect" : [ 247.0, 564.0, 83.0, 22.0 ],
					"style" : "",
					"text" : "peek~ FTable"
				}

			}
, 			{
				"box" : 				{
					"id" : "obj-86",
					"maxclass" : "button",
					"numinlets" : 1,
					"numoutlets" : 1,
					"outlettype" : [ "bang" ],
					"patching_rect" : [ 36.5, 589.0, 22.0, 22.0 ],
					"style" : ""
				}

			}
, 			{
				"box" : 				{
					"id" : "obj-80",
					"maxclass" : "message",
					"numinlets" : 2,
					"numoutlets" : 1,
					"outlettype" : [ "" ],
					"patching_rect" : [ 59.5, 293.0, 31.0, 22.0 ],
					"style" : "",
					"text" : "513"
				}

			}
, 			{
				"box" : 				{
					"id" : "obj-81",
					"maxclass" : "number",
					"numinlets" : 1,
					"numoutlets" : 2,
					"outlettype" : [ "", "bang" ],
					"parameter_enable" : 0,
					"patching_rect" : [ 59.5, 322.0, 50.0, 22.0 ],
					"style" : ""
				}

			}
, 			{
				"box" : 				{
					"id" : "obj-82",
					"maxclass" : "newobj",
					"numinlets" : 2,
					"numoutlets" : 2,
					"outlettype" : [ "bang", "" ],
					"patching_rect" : [ 36.5, 536.0, 42.0, 22.0 ],
					"style" : "",
					"text" : "select"
				}

			}
, 			{
				"box" : 				{
					"id" : "obj-73",
					"maxclass" : "button",
					"numinlets" : 1,
					"numoutlets" : 1,
					"outlettype" : [ "bang" ],
					"patching_rect" : [ 55.0, 17.0, 21.0, 21.0 ],
					"style" : ""
				}

			}
, 			{
				"box" : 				{
					"id" : "obj-72",
					"maxclass" : "newobj",
					"numinlets" : 1,
					"numoutlets" : 2,
					"outlettype" : [ "bang", "bang" ],
					"patching_rect" : [ 55.0, 42.0, 34.0, 22.0 ],
					"style" : "",
					"text" : "t b b"
				}

			}
, 			{
				"box" : 				{
					"id" : "obj-60",
					"maxclass" : "number",
					"numinlets" : 1,
					"numoutlets" : 2,
					"outlettype" : [ "", "bang" ],
					"parameter_enable" : 0,
					"patching_rect" : [ 125.5, 322.0, 50.0, 22.0 ],
					"style" : ""
				}

			}
, 			{
				"box" : 				{
					"id" : "obj-18",
					"maxclass" : "multislider",
					"numinlets" : 1,
					"numoutlets" : 2,
					"outlettype" : [ "", "" ],
					"parameter_enable" : 0,
					"patching_rect" : [ 315.5, 602.0, 191.0, 93.0 ],
					"setstyle" : 3,
					"slidercolor" : [ 1.0, 1.0, 1.0, 1.0 ],
					"style" : ""
				}

			}
, 			{
				"box" : 				{
					"id" : "obj-14",
					"maxclass" : "toggle",
					"numinlets" : 1,
					"numoutlets" : 1,
					"outlettype" : [ "int" ],
					"parameter_enable" : 0,
					"patching_rect" : [ 125.5, 223.0, 24.0, 24.0 ],
					"presentation_rect" : [ 60.0, 170.0, 24.0, 24.0 ],
					"style" : ""
				}

			}
, 			{
				"box" : 				{
					"fontname" : "Arial",
					"fontsize" : 13.0,
					"id" : "obj-54",
					"maxclass" : "newobj",
					"numinlets" : 5,
					"numoutlets" : 4,
					"outlettype" : [ "int", "", "", "int" ],
					"patching_rect" : [ 125.5, 293.0, 90.0, 23.0 ],
					"style" : "",
					"text" : "counter 0 513"
				}

			}
, 			{
				"box" : 				{
					"fontname" : "Arial",
					"fontsize" : 13.0,
					"id" : "obj-55",
					"maxclass" : "newobj",
					"numinlets" : 2,
					"numoutlets" : 1,
					"outlettype" : [ "bang" ],
					"patching_rect" : [ 125.5, 262.0, 69.0, 23.0 ],
					"style" : "",
					"text" : "qmetro 10"
				}

			}
, 			{
				"box" : 				{
					"color" : [ 0.0, 0.286275, 1.0, 1.0 ],
					"id" : "obj-50",
					"maxclass" : "newobj",
					"numinlets" : 3,
					"numoutlets" : 1,
					"outlettype" : [ "float" ],
					"patching_rect" : [ 156.5, 564.0, 75.0, 22.0 ],
					"style" : "",
					"text" : "peek~ Table"
				}

			}
, 			{
				"box" : 				{
					"id" : "obj-49",
					"maxclass" : "message",
					"numinlets" : 2,
					"numoutlets" : 1,
					"outlettype" : [ "" ],
					"patching_rect" : [ 241.0, 10.0, 107.0, 22.0 ],
					"style" : "",
					"text" : "sizeinsamps 1025"
				}

			}
, 			{
				"box" : 				{
					"color" : [ 0.0, 0.286275, 1.0, 1.0 ],
					"id" : "obj-48",
					"maxclass" : "newobj",
					"numinlets" : 1,
					"numoutlets" : 2,
					"outlettype" : [ "float", "bang" ],
					"patching_rect" : [ 241.0, 42.0, 107.0, 22.0 ],
					"style" : "",
					"text" : "buffer~ FTable"
				}

			}
, 			{
				"box" : 				{
					"id" : "obj-4",
					"maxclass" : "message",
					"numinlets" : 2,
					"numoutlets" : 1,
					"outlettype" : [ "" ],
					"patching_rect" : [ 135.0, 11.0, 100.0, 22.0 ],
					"style" : "",
					"text" : "sizeinsamps 513"
				}

			}
, 			{
				"box" : 				{
					"color" : [ 0.0, 0.286275, 1.0, 1.0 ],
					"id" : "obj-1",
					"maxclass" : "newobj",
					"numinlets" : 1,
					"numoutlets" : 2,
					"outlettype" : [ "float", "bang" ],
					"patching_rect" : [ 135.0, 42.0, 80.0, 22.0 ],
					"style" : "",
					"text" : "buffer~ Table"
				}

			}
 ],
		"lines" : [ 			{
				"patchline" : 				{
					"destination" : [ "obj-2", 0 ],
					"disabled" : 0,
					"hidden" : 0,
					"source" : [ "obj-11", 0 ]
				}

			}
, 			{
				"patchline" : 				{
					"destination" : [ "obj-11", 0 ],
					"disabled" : 0,
					"hidden" : 0,
					"source" : [ "obj-12", 1 ]
				}

			}
, 			{
				"patchline" : 				{
					"destination" : [ "obj-11", 2 ],
					"disabled" : 0,
					"hidden" : 0,
					"source" : [ "obj-13", 0 ]
				}

			}
, 			{
				"patchline" : 				{
					"destination" : [ "obj-55", 0 ],
					"disabled" : 0,
					"hidden" : 0,
					"source" : [ "obj-14", 0 ]
				}

			}
, 			{
				"patchline" : 				{
					"destination" : [ "obj-99", 1 ],
					"disabled" : 0,
					"hidden" : 0,
					"source" : [ "obj-18", 0 ]
				}

			}
, 			{
				"patchline" : 				{
					"destination" : [ "obj-50", 0 ],
					"disabled" : 0,
					"hidden" : 0,
					"order" : 1,
					"source" : [ "obj-2", 1 ]
				}

			}
, 			{
				"patchline" : 				{
					"destination" : [ "obj-82", 0 ],
					"disabled" : 0,
					"hidden" : 0,
					"midpoints" : [ 155.5, 533.0, 46.0, 533.0 ],
					"source" : [ "obj-2", 0 ]
				}

			}
, 			{
				"patchline" : 				{
					"destination" : [ "obj-99", 0 ],
					"disabled" : 0,
					"hidden" : 0,
					"order" : 0,
					"source" : [ "obj-2", 1 ]
				}

			}
, 			{
				"patchline" : 				{
					"destination" : [ "obj-17", 1 ],
					"disabled" : 0,
					"hidden" : 0,
					"source" : [ "obj-3", 1 ]
				}

			}
, 			{
				"patchline" : 				{
					"destination" : [ "obj-17", 0 ],
					"disabled" : 0,
					"hidden" : 0,
					"source" : [ "obj-3", 0 ]
				}

			}
, 			{
				"patchline" : 				{
					"destination" : [ "obj-1", 0 ],
					"disabled" : 0,
					"hidden" : 0,
					"source" : [ "obj-4", 0 ]
				}

			}
, 			{
				"patchline" : 				{
					"destination" : [ "obj-48", 0 ],
					"disabled" : 0,
					"hidden" : 0,
					"source" : [ "obj-49", 0 ]
				}

			}
, 			{
				"patchline" : 				{
					"destination" : [ "obj-12", 0 ],
					"disabled" : 0,
					"hidden" : 0,
					"source" : [ "obj-5", 0 ]
				}

			}
, 			{
				"patchline" : 				{
					"color" : [ 0.0, 0.0, 0.0, 1.0 ],
					"destination" : [ "obj-18", 0 ],
					"disabled" : 0,
					"hidden" : 0,
					"source" : [ "obj-50", 0 ]
				}

			}
, 			{
				"patchline" : 				{
					"destination" : [ "obj-60", 0 ],
					"disabled" : 0,
					"hidden" : 0,
					"source" : [ "obj-54", 0 ]
				}

			}
, 			{
				"patchline" : 				{
					"destination" : [ "obj-54", 0 ],
					"disabled" : 0,
					"hidden" : 0,
					"source" : [ "obj-55", 0 ]
				}

			}
, 			{
				"patchline" : 				{
					"destination" : [ "obj-7", 0 ],
					"disabled" : 0,
					"hidden" : 0,
					"source" : [ "obj-6", 0 ]
				}

			}
, 			{
				"patchline" : 				{
					"destination" : [ "obj-11", 1 ],
					"disabled" : 0,
					"hidden" : 0,
					"order" : 1,
					"source" : [ "obj-60", 0 ]
				}

			}
, 			{
				"patchline" : 				{
					"destination" : [ "obj-13", 0 ],
					"disabled" : 0,
					"hidden" : 0,
					"order" : 0,
					"source" : [ "obj-60", 0 ]
				}

			}
, 			{
				"patchline" : 				{
					"destination" : [ "obj-5", 0 ],
					"disabled" : 0,
					"hidden" : 0,
					"order" : 2,
					"source" : [ "obj-60", 0 ]
				}

			}
, 			{
				"patchline" : 				{
					"destination" : [ "obj-8", 0 ],
					"disabled" : 0,
					"hidden" : 0,
					"source" : [ "obj-7", 0 ]
				}

			}
, 			{
				"patchline" : 				{
					"color" : [ 0.258824, 0.258824, 0.258824, 1.0 ],
					"destination" : [ "obj-14", 0 ],
					"disabled" : 0,
					"hidden" : 0,
					"midpoints" : [ 64.5, 184.0, 135.0, 184.0 ],
					"source" : [ "obj-72", 0 ]
				}

			}
, 			{
				"patchline" : 				{
					"destination" : [ "obj-80", 0 ],
					"disabled" : 0,
					"hidden" : 0,
					"midpoints" : [ 79.5, 185.0, 69.0, 185.0 ],
					"source" : [ "obj-72", 1 ]
				}

			}
, 			{
				"patchline" : 				{
					"destination" : [ "obj-72", 0 ],
					"disabled" : 0,
					"hidden" : 0,
					"source" : [ "obj-73", 0 ]
				}

			}
, 			{
				"patchline" : 				{
					"destination" : [ "obj-3", 0 ],
					"disabled" : 0,
					"hidden" : 0,
					"source" : [ "obj-8", 1 ]
				}

			}
, 			{
				"patchline" : 				{
					"destination" : [ "obj-81", 0 ],
					"disabled" : 0,
					"hidden" : 0,
					"source" : [ "obj-80", 0 ]
				}

			}
, 			{
				"patchline" : 				{
					"destination" : [ "obj-82", 1 ],
					"disabled" : 0,
					"hidden" : 0,
					"source" : [ "obj-81", 0 ]
				}

			}
, 			{
				"patchline" : 				{
					"destination" : [ "obj-9", 0 ],
					"disabled" : 0,
					"hidden" : 0,
					"source" : [ "obj-82", 0 ]
				}

			}
, 			{
				"patchline" : 				{
					"color" : [ 0.192157, 0.282353, 0.098039, 1.0 ],
					"destination" : [ "obj-14", 0 ],
					"disabled" : 1,
					"hidden" : 0,
					"midpoints" : [ 46.0, 616.0, 18.0, 616.0, 18.0, 203.0, 135.0, 203.0 ],
					"source" : [ "obj-86", 0 ]
				}

			}
, 			{
				"patchline" : 				{
					"destination" : [ "obj-86", 0 ],
					"disabled" : 0,
					"hidden" : 0,
					"source" : [ "obj-9", 0 ]
				}

			}
 ],
		"dependency_cache" : [  ],
		"autosave" : 0
	}

}
